<mxfile host="app.diagrams.net" modified="2023-10-30T16:35:49.289Z" agent="Mozilla/5.0 (Windows NT 10.0; Win64; x64) AppleWebKit/537.36 (KHTML, like Gecko) Chrome/118.0.0.0 Safari/537.36" version="22.0.8" etag="4QjIC7OKPxEI9AKmQGlk" type="github">
  <diagram name="PÃ¡gina-1" id="UkL-RGYWb51NUkV6nH73">
    <mxGraphModel>
      <root>
        <mxCell id="0" />
        <mxCell id="1" parent="0" />
      </root>
    </mxGraphModel>
  </diagram>
</mxfile>
